<?xml version="1.0" standalone="no"?>
<!DOCTYPE svg PUBLIC "-//W3C//DTD SVG 20010904//EN"
 "http://www.w3.org/TR/2001/REC-SVG-20010904/DTD/svg10.dtd">
<svg version="1.0" xmlns="http://www.w3.org/2000/svg"
 width="200.000000pt" height="200.000000pt" viewBox="0 0 200.000000 200.000000"
 preserveAspectRatio="xMidYMid meet">
<metadata>
Created by potrace 1.16, written by Peter Selinger 2001-2019
</metadata>
<g transform="translate(0.000000,200.000000) scale(0.100000,-0.100000)"
fill="#000000" stroke="none">
<path d="M0 1000 l0 -1000 1000 0 1000 0 0 1000 0 1000 -1000 0 -1000 0 0
-1000z m1083 602 c35 -36 37 -97 5 -131 -21 -23 -21 -24 -4 -95 29 -122 43
-125 98 -19 28 53 34 73 27 91 -30 78 67 137 126 77 14 -13 25 -36 25 -50 0
-30 -41 -75 -68 -75 -24 0 -103 -141 -91 -163 13 -23 188 29 199 59 21 55 94
71 135 29 69 -68 -23 -175 -102 -120 -20 14 -30 13 -113 -12 -117 -36 -119
-51 -18 -110 l71 -41 28 20 c38 29 105 34 149 11 125 -65 96 -261 -40 -273
-57 -5 -81 2 -116 32 l-36 32 -91 -30 c-69 -23 -92 -35 -92 -47 0 -24 156
-109 176 -96 47 29 119 -13 119 -71 0 -93 -134 -108 -158 -18 -6 26 -22 39
-88 74 l-80 44 -42 -16 c-39 -16 -43 -21 -66 -90 -24 -73 -24 -73 -5 -110 42
-84 -34 -167 -117 -128 -76 36 -69 136 11 170 29 12 36 23 59 91 22 66 24 79
12 91 -12 12 -26 11 -97 -10 -83 -25 -84 -26 -90 -61 -23 -142 -205 -186 -285
-68 -66 97 5 241 121 244 31 1 35 5 51 46 13 34 14 48 5 60 -6 9 -16 26 -23
39 -11 21 -16 22 -65 16 -42 -5 -60 -13 -87 -40 -44 -44 -86 -46 -127 -5 -40
41 -40 91 0 132 39 39 79 39 124 -1 26 -22 45 -30 74 -30 43 0 61 11 87 53 17
27 17 30 -5 82 -20 49 -24 53 -61 58 -74 10 -120 78 -99 147 15 52 56 80 114
80 55 0 94 -33 111 -93 11 -37 14 -40 137 -91 123 -51 127 -52 148 -35 24 19
24 10 -8 135 -8 31 -18 44 -45 57 -50 23 -72 69 -57 118 14 48 44 69 96 69 32
0 47 -6 68 -28z"/>
<path d="M714 1276 c-3 -7 5 -35 18 -63 20 -47 26 -51 62 -56 21 -3 52 -15 68
-27 29 -21 30 -21 79 -4 34 13 49 23 49 36 0 10 -1 18 -3 18 -2 0 -63 25 -135
55 -98 40 -134 51 -138 41z"/>
<path d="M965 1074 c-49 -18 -51 -20 -59 -64 -6 -34 -3 -38 49 -82 72 -61 92
-57 100 21 3 31 8 65 10 77 3 15 -3 25 -20 34 -14 7 -25 17 -25 22 0 11 -7 10
-55 -8z"/>
<path d="M1181 1066 c-7 -8 -22 -17 -35 -20 -21 -5 -24 -13 -30 -82 -6 -66 -5
-78 11 -90 25 -19 31 -18 126 17 82 29 85 31 89 65 4 32 1 36 -41 61 -26 14
-60 34 -77 44 -27 16 -33 17 -43 5z"/>
<path d="M1445 1018 c-47 -25 -60 -82 -29 -126 39 -56 124 -47 150 14 33 78
-47 153 -121 112z"/>
<path d="M830 920 c-8 -5 -25 -10 -37 -10 -16 0 -25 -11 -38 -44 l-17 -44 28
-36 c16 -20 31 -36 34 -36 3 0 41 11 85 24 103 30 108 45 32 110 -57 49 -63
51 -87 36z"/>
<path d="M604 761 c-89 -54 -53 -181 51 -181 51 0 95 44 95 95 0 47 -13 71
-50 90 -38 20 -58 19 -96 -4z"/>
</g>
</svg>
